<svg width="70" height="70" viewBox="0 0 70 70" fill="none" xmlns="http://www.w3.org/2000/svg">
<g id="interface-lighting-light-bulb-on--lighting-light-shine-incandescent-bulb-lights">
<g id="Group">
<path id="Vector" d="M52.4999 40.0001C52.5116 36.8797 51.6887 33.813 50.1166 31.1176C48.5444 28.4222 46.2802 26.1961 43.5584 24.6701C40.8366 23.1441 37.7563 22.3735 34.6366 22.4383C31.5169 22.5031 28.4712 23.4009 25.8152 25.0386C23.1591 26.6764 20.9892 28.9945 19.5304 31.7529C18.0715 34.5112 17.3767 37.6095 17.5179 40.7267C17.6592 43.8439 18.6313 46.8666 20.3337 49.4817C22.036 52.0969 24.4066 54.2093 27.1999 55.6001V64.2001C27.2129 64.7085 27.4241 65.1918 27.7884 65.5467C28.1527 65.9017 28.6413 66.1002 29.1499 66.1001H40.8499C41.3585 66.1002 41.8471 65.9017 42.2114 65.5467C42.5756 65.1918 42.7868 64.7085 42.7999 64.2001V55.4501C45.6811 54.0158 48.111 51.8148 49.8223 49.089C51.5336 46.3632 52.4601 43.2183 52.4999 40.0001V40.0001Z" stroke="#000001" stroke-width="2" stroke-linecap="round" stroke-linejoin="round"/>
<path id="Vector_2" d="M35 4.05005V11.55" stroke="#000001" stroke-width="2" stroke-linecap="round" stroke-linejoin="round"/>
<path id="Vector_3" d="M55.0022 11.2006L49.7021 16.5506" stroke="#000001" stroke-width="2" stroke-linecap="round" stroke-linejoin="round"/>
<path id="Vector_4" d="M66.4014 26.7004H58.9014" stroke="#000001" stroke-width="2" stroke-linecap="round" stroke-linejoin="round"/>
<path id="Vector_5" d="M15 11.2001L20.3 16.5501" stroke="#000001" stroke-width="2" stroke-linecap="round" stroke-linejoin="round"/>
<path id="Vector_6" d="M3.59961 26.7001H11.0996" stroke="#000001" stroke-width="2" stroke-linecap="round" stroke-linejoin="round"/>
</g>
</g>
</svg>
