<svg width="59" height="59" viewBox="0 0 59 59" fill="none" xmlns="http://www.w3.org/2000/svg">
<path id="Vector" fill-rule="evenodd" clip-rule="evenodd" d="M32.7066 57.1946L34.3055 54.4924C35.5445 52.3979 36.1641 51.3477 37.1612 50.7695C38.1583 50.1883 39.412 50.1677 41.9195 50.1234C45.6247 50.0615 47.9464 49.8344 49.8934 49.0261C51.6829 48.2848 53.309 47.1983 54.6786 45.8286C56.0483 44.459 57.1348 42.8329 57.876 41.0434C59 38.3353 59 34.8985 59 28.025V25.075C59 15.4197 59 10.5905 56.8259 7.0446C55.6103 5.05983 53.9424 3.39088 51.9584 2.17415C48.4095 0 43.5803 0 33.925 0H25.075C15.4197 0 10.5905 0 7.0446 2.17415C5.05983 3.38967 3.39088 5.05762 2.17415 7.04165C0 10.5905 0 15.4226 0 25.075V28.025C0 34.8985 3.51667e-07 38.3353 1.121 41.0434C1.8626 42.8332 2.94953 44.4594 4.31973 45.8291C5.68993 47.1988 7.31654 48.2851 9.10665 49.0261C11.0536 49.8344 13.3753 50.0585 17.0805 50.1234C19.588 50.1677 20.8417 50.1883 21.8389 50.7695C22.833 51.3477 23.4555 52.395 24.6945 54.4924L26.2934 57.1946C27.7182 59.6018 31.2789 59.6018 32.7066 57.1946ZM29.5 12.5375C30.0868 12.5375 30.6495 12.7706 31.0645 13.1855C31.4794 13.6005 31.7125 14.1632 31.7125 14.75V38.35C31.7125 38.9368 31.4794 39.4995 31.0645 39.9145C30.6495 40.3294 30.0868 40.5625 29.5 40.5625C28.9132 40.5625 28.3505 40.3294 27.9355 39.9145C27.5206 39.4995 27.2875 38.9368 27.2875 38.35V14.75C27.2875 14.1632 27.5206 13.6005 27.9355 13.1855C28.3505 12.7706 28.9132 12.5375 29.5 12.5375ZM19.9125 20.65C19.9125 20.0632 19.6794 19.5005 19.2645 19.0855C18.8495 18.6706 18.2868 18.4375 17.7 18.4375C17.1132 18.4375 16.5505 18.6706 16.1355 19.0855C15.7206 19.5005 15.4875 20.0632 15.4875 20.65V32.45C15.4875 33.0368 15.7206 33.5995 16.1355 34.0145C16.5505 34.4294 17.1132 34.6625 17.7 34.6625C18.2868 34.6625 18.8495 34.4294 19.2645 34.0145C19.6794 33.5995 19.9125 33.0368 19.9125 32.45V20.65ZM41.3 18.4375C41.8868 18.4375 42.4496 18.6706 42.8645 19.0855C43.2794 19.5005 43.5125 20.0632 43.5125 20.65V32.45C43.5125 33.0368 43.2794 33.5995 42.8645 34.0145C42.4496 34.4294 41.8868 34.6625 41.3 34.6625C40.7132 34.6625 40.1505 34.4294 39.7355 34.0145C39.3206 33.5995 39.0875 33.0368 39.0875 32.45V20.65C39.0875 20.0632 39.3206 19.5005 39.7355 19.0855C40.1505 18.6706 40.7132 18.4375 41.3 18.4375Z" fill="#11A3FF"/>
</svg>
