<svg width="144" height="53" viewBox="0 0 144 53" fill="none" xmlns="http://www.w3.org/2000/svg">
<g id="Group 975">
<path id="Vector" d="M11.8258 49.897C8.20188 47.829 5.31996 44.8635 3.1933 41.0071C1.06664 37.1507 0 32.644 0 27.5C0 22.3559 1.06664 17.6932 3.1933 13.7847C5.31996 9.8828 8.20188 6.88483 11.8258 4.79079C15.4497 2.70327 19.4447 1.65625 23.7974 1.65625C28.1501 1.65625 32.0655 2.70327 35.6961 4.79079C39.32 6.87832 42.2019 9.8763 44.3286 13.7847C46.4553 17.6932 47.5219 22.2584 47.5219 27.5C47.5219 32.7416 46.4553 37.1442 44.3286 41.0071C42.1953 44.8635 39.32 47.829 35.6961 49.897C32.0655 51.965 28.1037 52.999 23.7974 52.999C19.4911 52.999 15.4564 51.965 11.8258 49.897ZM32.675 43.7645C35.1793 42.2492 37.1006 40.0902 38.4322 37.2873C39.7639 34.4844 40.433 31.2263 40.433 27.5C40.433 21.6211 38.9556 17.0038 36.0075 13.6482C33.0593 10.2925 28.9848 8.62118 23.7908 8.62118C18.5967 8.62118 14.456 10.299 11.5078 13.6482C8.55964 17.0038 7.08224 21.6211 7.08224 27.5C7.08224 33.3789 8.56626 37.71 11.5409 41.0397C14.5156 44.3693 18.5967 46.0341 23.7908 46.0341C27.2093 46.0341 30.1641 45.2797 32.6684 43.758L32.675 43.7645Z" fill="white"/>
<path id="Vector_2" d="M87.1742 28.4225H74.6859V16.1575H69.6375V28.4225H57.1426V33.378H69.6375V45.6365H74.6859V33.378H87.1742V28.4225Z" fill="white"/>
<path id="Vector_3" d="M137.807 17.7082L124.484 4.63028L119.767 0L115.057 4.63028L101.733 17.7082L95.9961 23.3335V25.6031V52.3118H102.668V26.0453L119.767 9.26056L136.866 26.0453V52.3118H143.538V25.6096V23.327L137.807 17.7082Z" fill="white"/>
</g>
</svg>
