<svg width="73" height="29" viewBox="0 0 73 29" fill="none" xmlns="http://www.w3.org/2000/svg">
<path d="M6.64047 27.2083C4.82266 26.1157 3.37705 24.5491 2.31029 22.5117C1.24354 20.4743 0.708496 18.0933 0.708496 15.3757C0.708496 12.658 1.24354 10.1946 2.31029 8.12978C3.37705 6.06835 4.82266 4.48448 6.64047 3.37818C8.45827 2.27532 10.4622 1.72217 12.6455 1.72217C14.8289 1.72217 16.7929 2.27532 18.6141 3.37818C20.4319 4.48105 21.8775 6.06491 22.9442 8.12978C24.011 10.1946 24.546 12.6065 24.546 15.3757C24.546 18.1449 24.011 20.4709 22.9442 22.5117C21.8742 24.5491 20.4319 26.1157 18.6141 27.2083C16.7929 28.3009 14.8056 28.8471 12.6455 28.8471C10.4854 28.8471 8.4616 28.3009 6.64047 27.2083ZM17.0987 23.9684C18.3549 23.1679 19.3186 22.0272 19.9866 20.5464C20.6545 19.0657 20.9902 17.3444 20.9902 15.3757C20.9902 12.2698 20.2491 9.83045 18.7703 8.05763C17.2914 6.2848 15.2476 5.40182 12.6422 5.40182C10.0368 5.40182 7.95979 6.28823 6.48095 8.05763C5.00211 9.83045 4.26103 12.2698 4.26103 15.3757C4.26103 18.4816 5.00544 20.7698 6.49757 22.5289C7.9897 24.2879 10.0368 25.1675 12.6422 25.1675C14.357 25.1675 15.8392 24.7689 17.0954 23.965L17.0987 23.9684Z" fill="white"/>
<path d="M44.4358 15.8631H38.1715V9.3833H35.6392V15.8631H29.3716V18.4811H35.6392V24.9574H38.1715V18.4811H44.4358V15.8631Z" fill="white"/>
<path d="M69.8338 10.2026L63.1507 3.2934L60.7846 0.847168L58.4218 3.2934L51.7388 10.2026L48.8608 13.1745V14.3736V28.4841H52.2073V14.6072L60.7846 5.73963L69.3619 14.6072V28.4841H72.7084V14.377V13.1711L69.8338 10.2026Z" fill="white"/>
</svg>
