<svg width="282" height="758" viewBox="0 0 282 758" fill="none" xmlns="http://www.w3.org/2000/svg">
<path d="M265.494 695.193C254.49 714.439 238.712 729.745 218.192 741.04C197.673 752.335 173.694 758 146.323 758C118.952 758 94.1423 752.335 73.3462 741.04C52.5847 729.745 36.6329 714.439 25.4909 695.193C14.3835 675.946 8.8125 654.728 8.81249 631.611C8.81249 608.494 14.3835 587.699 25.4909 568.417C36.5983 549.17 52.5501 533.864 73.3462 522.569C94.1423 511.274 118.433 505.609 146.323 505.609C174.213 505.609 197.638 511.274 218.192 522.569C238.712 533.899 254.49 549.17 265.494 568.417C276.498 587.699 281.999 608.74 281.999 631.611C281.999 654.482 276.498 675.911 265.494 695.193ZM232.864 584.462C224.801 571.161 213.313 560.957 198.4 553.885C183.486 546.812 166.15 543.259 146.323 543.259C115.042 543.259 90.4745 551.105 72.6196 566.763C54.7646 582.421 45.8718 604.06 45.8718 631.646C45.8718 659.232 54.7993 681.224 72.6196 696.882C90.4745 712.539 115.042 720.386 146.323 720.386C177.604 720.386 200.649 712.504 218.365 696.706C236.082 680.907 244.94 659.232 244.94 631.646C244.94 613.49 240.926 597.797 232.829 584.497L232.864 584.462Z" fill="#EDEDED"/>
<path d="M151.231 299.35L151.231 365.677L85.9707 365.677L85.9707 392.488L151.231 392.488L151.231 458.85L177.598 458.85L177.598 392.488L242.824 392.488L242.824 365.677L177.598 365.677L177.598 299.35L151.231 299.35Z" fill="#EDEDED"/>
<path d="M94.2227 30.4358L24.637 101.195L-5.51848e-06 126.248L24.637 151.265L94.2227 222.025L124.154 252.496L136.23 252.496L278.343 252.496L278.343 217.064L138.583 217.064L49.274 126.248L138.583 35.4324L278.343 35.4324L278.343 -0.000176323L136.265 -0.000170113L124.119 -0.000169582L94.2227 30.4358Z" fill="#EDEDED"/>
</svg>
