<svg width="87" height="48" viewBox="0 0 87 48" fill="none" xmlns="http://www.w3.org/2000/svg">
<g clip-path="url(#clip0_265_3865)">
<path d="M7.14024 38.127C4.95217 36.8784 3.21211 35.0879 1.92806 32.7594C0.644022 30.431 0 27.7099 0 24.604C0 21.4981 0.644022 18.6828 1.92806 16.323C3.21211 13.9671 4.95217 12.1569 7.14024 10.8926C9.32831 9.63217 11.7404 9 14.3685 9C16.9966 9 19.3606 9.63217 21.5527 10.8926C23.7408 12.153 25.4809 13.9631 26.7649 16.323C28.0489 18.6828 28.693 21.4392 28.693 24.604C28.693 27.7688 28.0489 30.4271 26.7649 32.7594C25.4769 35.0879 23.7408 36.8784 21.5527 38.127C19.3606 39.3756 16.9686 40 14.3685 40C11.7684 40 9.33231 39.3756 7.14024 38.127ZM19.7287 34.4243C21.2407 33.5094 22.4007 32.2058 23.2048 30.5135C24.0088 28.8211 24.4128 26.8539 24.4128 24.604C24.4128 21.0545 23.5208 18.2666 21.7407 16.2405C19.9607 14.2144 17.5006 13.2053 14.3645 13.2053C11.2284 13.2053 8.72829 14.2184 6.94823 16.2405C5.16817 18.2666 4.27614 21.0545 4.27614 24.604C4.27614 28.1536 5.17217 30.7687 6.96823 32.7791C8.76429 34.7895 11.2284 35.7946 14.3645 35.7946C16.4285 35.7946 18.2126 35.3392 19.7247 34.4204L19.7287 34.4243Z" fill="black"/>
<path d="M52.634 25.1611H45.0937V17.7556H42.0456V25.1611H34.5013V28.1531H42.0456V35.5546H45.0937V28.1531H52.634V25.1611Z" fill="black"/>
<path d="M83.2054 18.6919L75.1611 10.7957L72.3131 8L69.469 10.7957L61.4247 18.6919L57.9606 22.0884V23.4588V39.585H61.9887V23.7258L72.3131 13.5914L82.6374 23.7258V39.585H86.6655V23.4627V22.0845L83.2054 18.6919Z" fill="black"/>
</g>
<defs>
<clipPath id="clip0_265_3865">
<rect width="86.6655" height="48" fill="white"/>
</clipPath>
</defs>
</svg>
