<svg width="23" height="20" viewBox="0 0 23 20" fill="none" xmlns="http://www.w3.org/2000/svg">
<g opacity="0.35">
<path d="M2.34146 3.36364V2C1.60098 2 1 2.61091 1 3.36364H2.34146ZM21.6585 3.36364H23C23 2.61091 22.399 2 21.6585 2V3.36364ZM2.34146 4.72727H21.6585V2H2.34146V4.72727ZM20.3171 3.36364V16.4545H23V3.36364H20.3171ZM19.5122 17.2727H4.48781V20H19.5122V17.2727ZM3.68293 16.4545V3.36364H1V16.4545H3.68293ZM4.48781 17.2727C4.27434 17.2727 4.06961 17.1865 3.91867 17.0331C3.76773 16.8796 3.68293 16.6715 3.68293 16.4545H1C1 17.3949 1.36746 18.2967 2.02155 18.9616C2.67564 19.6265 3.56278 20 4.48781 20V17.2727ZM20.3171 16.4545C20.3171 16.6715 20.2323 16.8796 20.0813 17.0331C19.9304 17.1865 19.7257 17.2727 19.5122 17.2727V20C20.4372 20 21.3244 19.6265 21.9784 18.9616C22.6325 18.2967 23 17.3949 23 16.4545H20.3171Z" fill="white"/>
<path d="M2 2L11.6585 11.8182L21.3171 2" fill="white"/>
<path d="M2 2L11.6585 11.8182L21.3171 2" stroke="black" strokeWidth="2.5" stroke-linecap="round" stroke-linejoin="round"/>
</g>
</svg>
