<svg width="448" height="55" viewBox="0 0 448 55" fill="none" xmlns="http://www.w3.org/2000/svg">
<path d="M11.9953 51.4605C8.31946 49.3534 5.39622 46.3319 3.23908 42.4027C1.08193 38.4734 0 33.8815 0 28.6403C0 23.3991 1.08193 18.6482 3.23908 14.666C5.39622 10.6903 8.31946 7.6357 11.9953 5.50211C15.6712 3.37515 19.7234 2.30835 24.1385 2.30835C28.5536 2.30835 32.5252 3.37515 36.2078 5.50211C39.8837 7.62908 42.8069 10.6837 44.9641 14.666C47.1212 18.6482 48.2031 23.2997 48.2031 28.6403C48.2031 33.9809 47.1212 38.4668 44.9641 42.4027C42.8002 46.3319 39.8837 49.3534 36.2078 51.4605C32.5252 53.5676 28.5066 54.6211 24.1385 54.6211C19.7705 54.6211 15.6779 53.5676 11.9953 51.4605ZM33.1434 45.2121C35.6836 43.6682 37.6324 41.4684 38.9832 38.6125C40.3339 35.7567 41.0126 32.4371 41.0126 28.6403C41.0126 22.6504 39.5141 17.9459 36.5236 14.5268C33.5332 11.1078 29.4003 9.40486 24.1318 9.40486C18.8633 9.40486 14.6632 11.1144 11.6728 14.5268C8.68234 17.9459 7.18377 22.6504 7.18377 28.6403C7.18377 34.6303 8.68906 39.0432 11.7064 42.4358C14.7237 45.8283 18.8633 47.5246 24.1318 47.5246C27.5994 47.5246 30.5965 46.756 33.1367 45.2055L33.1434 45.2121Z" fill="white"/>
<path d="M100.038 3.02051V30.7506C100.038 39.1326 97.9483 45.0894 93.7751 48.6211C89.5952 52.1528 84.3536 53.9219 78.0367 53.9219C71.7198 53.9219 66.4782 52.1528 62.2983 48.6211C58.1184 45.0894 56.0352 39.1326 56.0352 30.7506V3.02051H62.8023V30.7506C62.8023 36.7869 64.153 40.9878 66.8612 43.3534C69.5694 45.7189 73.2923 46.8983 78.0434 46.8983C82.7945 46.8983 86.5174 45.7189 89.2256 43.3534C91.9338 40.9878 93.2846 36.7869 93.2846 30.7506V3.02051H100.052H100.038Z" fill="white"/>
<path d="M147.755 3.02051V9.69295H130.524V53.9219H123.757V9.68633H106.453V3.02051H147.755Z" fill="white"/>
<path d="M191.651 9.62007C195.852 14.0198 197.955 20.3145 197.955 28.5043C197.955 36.6942 195.852 42.9227 191.651 47.3224C187.451 51.7221 181.383 53.9219 173.46 53.9219H154.16V3.02051H173.46C181.39 3.02051 187.451 5.22036 191.651 9.62007ZM190.832 28.5043C190.832 15.9612 185.039 9.68633 173.46 9.68633H160.927V47.2495H173.46C185.039 47.2495 190.832 41.0011 190.832 28.5043Z" fill="white"/>
<path d="M215.648 51.4605C211.972 49.3534 209.049 46.3319 206.891 42.4027C204.728 38.4734 203.652 33.8815 203.652 28.6403C203.652 23.3991 204.734 18.6482 206.891 14.666C209.049 10.6903 211.972 7.6357 215.648 5.50211C219.324 3.37515 223.376 2.30835 227.791 2.30835C232.206 2.30835 236.178 3.37515 239.86 5.50211C243.536 7.62908 246.459 10.6837 248.616 14.666C250.774 18.6482 251.855 23.2997 251.855 28.6403C251.855 33.9809 250.774 38.4668 248.616 42.4027C246.453 46.3319 243.536 49.3534 239.86 51.4605C236.178 53.5676 232.159 54.6211 227.791 54.6211C223.423 54.6211 219.33 53.5676 215.648 51.4605ZM236.796 45.2121C239.336 43.6682 241.285 41.4684 242.636 38.6125C243.986 35.7567 244.665 32.4371 244.665 28.6403C244.665 22.6504 243.166 17.9459 240.176 14.5268C237.186 11.1078 233.053 9.40486 227.784 9.40486C222.516 9.40486 218.316 11.1144 215.325 14.5268C212.335 17.9459 210.836 22.6504 210.836 28.6403C210.836 34.6303 212.341 39.0432 215.359 42.4358C218.376 45.8283 222.516 47.5246 227.784 47.5246C231.252 47.5246 234.249 46.756 236.789 45.2055L236.796 45.2121Z" fill="white"/>
<path d="M298.462 28.8555C296.352 31.3867 293.395 33.2089 289.599 34.3353L300.633 53.9219H292.515L282.475 35.5942C281.857 35.6406 280.862 35.6671 279.485 35.6671H266.455V53.9219H259.688V3.02051H279.485C286.131 3.02051 291.48 4.3656 295.539 7.05578C299.598 9.74596 301.628 13.7614 301.628 19.0953C301.628 23.071 300.572 26.3244 298.456 28.8555H298.462ZM279.485 28.9947C284.8 28.9947 288.685 28.2791 291.124 26.8545C293.57 25.4299 294.793 22.8391 294.793 19.0953C294.793 15.6299 293.557 13.1981 291.09 11.7934C288.624 10.3887 284.753 9.68633 279.485 9.68633H266.455V28.9947H279.485Z" fill="white"/>
<path d="M350.369 28.8555C348.258 31.3867 345.302 33.2089 341.505 34.3353L352.539 53.9219H344.421L334.382 35.5942C333.763 35.6406 332.769 35.6671 331.391 35.6671H318.361V53.9219H311.594V3.02051H331.391C338.037 3.02051 343.386 4.3656 347.445 7.05578C351.504 9.74596 353.534 13.7614 353.534 19.0953C353.534 23.071 352.479 26.3244 350.362 28.8555H350.369ZM331.391 28.9947C336.707 28.9947 340.591 28.2791 343.03 26.8545C345.476 25.4299 346.699 22.8391 346.699 19.0953C346.699 15.6299 345.463 13.1981 342.997 11.7934C340.53 10.3887 336.66 9.68633 331.391 9.68633H318.361V28.9947H331.391Z" fill="white"/>
<path d="M390.829 29.5801H378.162V17.0834H373.041V29.5801H360.367V34.6292H373.041V47.1193H378.162V34.6292H390.829V29.5801Z" fill="white"/>
<path d="M442.188 18.6639L428.674 5.33885L423.889 0.621094L419.111 5.33885L405.597 18.6639L399.777 24.3954V26.7079V53.9211H406.544V27.1585L423.889 10.0566L441.234 27.1585V53.9211H448.001V26.7145V24.3888L442.188 18.6639Z" fill="white"/>
</svg>
