<svg width="87" height="49" viewBox="0 0 87 49" fill="none" xmlns="http://www.w3.org/2000/svg">
<g clip-path="url(#clip0_265_3767)">
<path d="M7.30748 38.6744C5.1194 37.4257 3.37934 35.6352 2.0953 33.3068C0.811258 30.9784 0.167236 28.2573 0.167236 25.1514C0.167236 22.0455 0.811258 19.2302 2.0953 16.8703C3.37934 14.5144 5.1194 12.7043 7.30748 11.44C9.49555 10.1795 11.9076 9.54736 14.5357 9.54736C17.1638 9.54736 19.5279 10.1795 21.72 11.44C23.908 12.7004 25.6481 14.5105 26.9321 16.8703C28.2162 19.2302 28.8602 21.9866 28.8602 25.1514C28.8602 28.3162 28.2162 30.9744 26.9321 33.3068C25.6441 35.6352 23.908 37.4257 21.72 38.6744C19.5279 39.923 17.1358 40.5473 14.5357 40.5473C11.9356 40.5473 9.49955 39.923 7.30748 38.6744ZM19.8959 34.9716C21.4079 34.0568 22.568 32.7532 23.372 31.0608C24.176 29.3685 24.5801 27.4013 24.5801 25.1514C24.5801 21.6018 23.688 18.814 21.908 16.7879C20.1279 14.7618 17.6678 13.7527 14.5317 13.7527C11.3956 13.7527 8.89553 14.7657 7.11547 16.7879C5.33541 18.814 4.44338 21.6018 4.44338 25.1514C4.44338 28.701 5.33941 31.316 7.13547 33.3264C8.93153 35.3368 11.3956 36.342 14.5317 36.342C16.5958 36.342 18.3798 35.8865 19.8919 34.9677L19.8959 34.9716Z" fill="white"/>
<path d="M52.8012 25.7084H45.2609V18.303H42.2128V25.7084H34.6686V28.7004H42.2128V36.1019H45.2609V28.7004H52.8012V25.7084Z" fill="white"/>
<path d="M83.3727 19.2393L75.3284 11.3431L72.4803 8.54736L69.6362 11.3431L61.5919 19.2393L58.1278 22.6358V24.0061V40.1324H62.1559V24.2731L72.4803 14.1387L82.8046 24.2731V40.1324H86.8328V24.01V22.6318L83.3727 19.2393Z" fill="white"/>
</g>
<defs>
<clipPath id="clip0_265_3767">
<rect width="86.6655" height="48" fill="white" transform="translate(0.167236 0.547363)"/>
</clipPath>
</defs>
</svg>
