<?xml version="1.0" encoding="UTF-8"?>
<svg id="Layer_2" data-name="Layer 2" xmlns="http://www.w3.org/2000/svg" viewBox="0 0 563.89 99.78">
  <defs>
    <style>
      .cls-1 {
        stroke-width: 0px;
      }
    </style>
  </defs>
  <g id="Layer_1-2" data-name="Layer 1">
    <g>
      <path class="cls-1" d="m0,56.17h14.38c.15.46.48,1.08.99,1.86.5.77,1.28,1.53,2.32,2.26,1.04.74,2.42,1.37,4.12,1.91,1.7.54,3.87.81,6.5.81,3.94,0,7.02-.5,9.22-1.51,2.2-1,3.11-2.55,2.73-4.64-.54-2.71-5.03-4.64-13.46-5.8-1.08-.15-2.46-.37-4.12-.64-1.66-.27-3.44-.7-5.34-1.28-1.9-.58-3.79-1.35-5.68-2.32-1.9-.97-3.6-2.18-5.1-3.65-1.51-1.47-2.67-3.23-3.48-5.28-.81-2.05-1.14-4.47-.99-7.25.23-2.78,1-5.28,2.32-7.48,1.31-2.2,3.07-4.1,5.28-5.68,2.2-1.58,4.83-2.8,7.89-3.65,3.05-.85,6.4-1.28,10.03-1.28,3.63.08,6.98.62,10.03,1.62,3.05,1.01,5.68,2.4,7.89,4.18,2.2,1.78,3.92,3.93,5.16,6.44,1.24,2.51,1.89,5.28,1.97,8.29h-14.38c0-1.39-.37-2.53-1.1-3.42-.74-.89-1.66-1.6-2.78-2.15-1.12-.54-2.34-.91-3.65-1.1-1.32-.19-2.51-.29-3.6-.29-1.01,0-2.11.08-3.31.23-1.2.16-2.34.43-3.42.81-1.08.39-1.99.91-2.73,1.57-.74.66-1.1,1.53-1.1,2.61-.08,2.17.93,3.58,3.02,4.23,2.09.66,5.22,1.3,9.4,1.91,3.09.46,6.21,1.08,9.34,1.86,3.13.77,5.93,1.91,8.41,3.42,2.47,1.51,4.48,3.48,6.03,5.92,1.55,2.44,2.28,5.51,2.2,9.22-.08,2.32-.68,4.6-1.8,6.84-1.12,2.24-2.78,4.25-4.99,6.03-2.2,1.78-4.99,3.21-8.35,4.29-3.36,1.08-7.33,1.62-11.89,1.62-3.48-.08-6.9-.56-10.27-1.45-3.36-.89-6.34-2.18-8.93-3.89-2.59-1.7-4.7-3.81-6.32-6.32-1.62-2.51-2.44-5.47-2.44-8.87Z"/>
      <path class="cls-1" d="m62.29,13.13h14.62v34.57c0,2.4.19,4.52.58,6.38.39,1.86,1.06,3.4,2.03,4.64.97,1.24,2.28,2.17,3.94,2.78,1.66.62,3.81.93,6.44.93,4.1,0,7.73-1.04,10.9-3.13,1.16-.77,2.07-1.6,2.73-2.49.66-.89,1.16-1.84,1.51-2.84.35-1,.6-1.99.75-2.96.15-.97.23-1.91.23-2.84V13.25h14.62v62.99h-12.3l-1.04-4.64c-2.01,1.32-4.56,2.49-7.66,3.54-3.09,1.04-6.73,1.57-10.9,1.57-17.63,0-26.45-8.93-26.45-26.8V13.13Z"/>
      <path class="cls-1" d="m191.29,76.24h-14.62v-34.57c0-2.4-.19-4.52-.58-6.38-.39-1.86-1.06-3.4-2.03-4.64-.97-1.24-2.28-2.17-3.94-2.78-1.66-.62-3.81-.93-6.44-.93-4.1,0-7.73,1.04-10.9,3.13-1.16.77-2.07,1.6-2.73,2.49-.66.89-1.16,1.84-1.51,2.84-.35,1-.6,1.99-.75,2.96-.15.97-.23,1.91-.23,2.84v34.92h-14.62V13.13h12.3l1.04,4.64c2.01-1.32,4.56-2.49,7.66-3.54,3.09-1.04,6.73-1.57,10.9-1.57,17.63,0,26.45,8.93,26.45,26.8v36.77Z"/>
      <path class="cls-1" d="m203.59,13.13h12.41l1.04,4.41c1.55-1.55,3.48-2.74,5.8-3.6,2.32-.85,5.18-1.28,8.58-1.28,2.16,0,3.94.19,5.34.58.85.16,1.58.35,2.2.58v14.38c-.54-.15-1.12-.27-1.74-.35-1.16-.23-2.63-.35-4.41-.35-5.03,0-8.68,1.22-10.96,3.65-2.28,2.44-3.5,6.17-3.65,11.19v33.87h-14.62V13.13Z"/>
      <path class="cls-1" d="m241.52,44.68c0-4.95.73-9.4,2.2-13.34,1.47-3.94,3.6-7.31,6.38-10.09s6.15-4.91,10.09-6.38c3.94-1.47,8.39-2.2,13.34-2.2s9.4.74,13.34,2.2c3.94,1.47,7.31,3.6,10.09,6.38,2.78,2.78,4.91,6.15,6.38,10.09,1.47,3.94,2.2,8.39,2.2,13.34s-.74,9.4-2.2,13.34c-1.47,3.94-3.6,7.31-6.38,10.09-2.78,2.78-6.15,4.91-10.09,6.38-3.94,1.47-8.39,2.2-13.34,2.2s-9.4-.73-13.34-2.2c-3.94-1.47-7.31-3.6-10.09-6.38-2.78-2.78-4.91-6.15-6.38-10.09-1.47-3.94-2.2-8.39-2.2-13.34Zm32.02,18.1c11.6,0,17.4-6.03,17.4-18.1s-5.8-18.1-17.4-18.1-17.4,6.03-17.4,18.1,5.8,18.1,17.4,18.1Z"/>
      <path class="cls-1" d="m310.54,44.68c0-4.95.73-9.4,2.2-13.34,1.47-3.94,3.6-7.31,6.38-10.09s6.15-4.91,10.09-6.38c3.94-1.47,8.39-2.2,13.34-2.2s9.4.74,13.34,2.2c3.94,1.47,7.31,3.6,10.09,6.38s4.91,6.15,6.38,10.09c1.47,3.94,2.2,8.39,2.2,13.34s-.74,9.4-2.2,13.34c-1.47,3.94-3.6,7.31-6.38,10.09-2.78,2.78-6.15,4.91-10.09,6.38-3.94,1.47-8.39,2.2-13.34,2.2s-9.4-.73-13.34-2.2c-3.94-1.47-7.31-3.6-10.09-6.38-2.78-2.78-4.91-6.15-6.38-10.09-1.47-3.94-2.2-8.39-2.2-13.34Zm32.02,18.1c11.6,0,17.4-6.03,17.4-18.1s-5.8-18.1-17.4-18.1-17.4,6.03-17.4,18.1,5.8,18.1,17.4,18.1Z"/>
      <path class="cls-1" d="m510.3,13.13l18.33,36.08,18.33-36.08h16.94l-45.59,86.66h-16.12l18.33-35.03-27.15-51.62h16.94Z"/>
      <polygon class="cls-1" points="474.31 9.76 443.97 1.96 441.34 1.29 436.34 0 431.35 1.29 428.71 1.96 398.38 9.76 383.15 13.68 383.15 76.24 398.38 76.24 398.38 24.18 398.61 24.12 426.76 16.89 428.71 16.39 428.71 76.24 436.34 76.24 443.97 76.24 443.97 16.39 445.92 16.89 474.07 24.12 474.31 24.18 474.31 76.24 489.53 76.24 489.53 13.68 474.31 9.76"/>
    </g>
  </g>
</svg>