<?xml version="1.0" encoding="UTF-8"?>
<svg id="Layer_2" data-name="Layer 2" xmlns="http://www.w3.org/2000/svg" viewBox="0 0 745.76 131.97">
  <defs>
    <style>
      .cls-1, .cls-2 {
        stroke-width: 0px;
      }

      .cls-2 {
        fill: #55b6e6;
      }
    </style>
  </defs>
  <g id="Layer_1-2" data-name="Layer 1">
    <g>
      <path class="cls-1" d="m0,74.28h19.02c.2.61.64,1.43,1.3,2.45.66,1.02,1.69,2.02,3.07,2.99,1.38.97,3.2,1.82,5.45,2.53,2.25.72,5.11,1.07,8.59,1.07,5.22,0,9.28-.66,12.2-1.99,2.92-1.33,4.12-3.38,3.61-6.14-.72-3.58-6.65-6.14-17.8-7.67-1.43-.2-3.25-.48-5.45-.84-2.2-.36-4.55-.92-7.06-1.69-2.51-.77-5.01-1.79-7.52-3.07-2.51-1.28-4.76-2.89-6.75-4.83-1.99-1.94-3.53-4.27-4.6-6.98-1.07-2.71-1.51-5.91-1.3-9.59.31-3.68,1.33-6.98,3.07-9.9,1.74-2.92,4.07-5.42,6.98-7.52,2.91-2.1,6.39-3.71,10.43-4.83,4.04-1.12,8.46-1.69,13.27-1.69,4.81.1,9.23.82,13.27,2.15,4.04,1.33,7.52,3.17,10.43,5.52,2.92,2.35,5.19,5.19,6.83,8.51,1.64,3.33,2.51,6.98,2.61,10.97h-19.02c0-1.84-.49-3.35-1.46-4.53-.97-1.17-2.2-2.12-3.68-2.84-1.48-.71-3.1-1.2-4.83-1.46-1.74-.25-3.33-.38-4.76-.38-1.33,0-2.79.1-4.37.31-1.59.21-3.09.56-4.53,1.07-1.43.51-2.63,1.2-3.61,2.07-.97.87-1.46,2.02-1.46,3.45-.1,2.86,1.23,4.73,3.99,5.6,2.76.87,6.9,1.71,12.43,2.53,4.09.61,8.21,1.43,12.35,2.45,4.14,1.02,7.85,2.53,11.12,4.53,3.27,1.99,5.93,4.6,7.98,7.82,2.05,3.22,3.02,7.29,2.92,12.2-.1,3.07-.9,6.09-2.38,9.05-1.48,2.97-3.68,5.63-6.6,7.98-2.92,2.35-6.6,4.24-11.05,5.68-4.45,1.43-9.69,2.15-15.73,2.15-4.6-.1-9.13-.74-13.58-1.92-4.45-1.17-8.39-2.89-11.81-5.14-3.43-2.25-6.21-5.04-8.36-8.36-2.15-3.32-3.22-7.23-3.22-11.74Z"/>
      <path class="cls-1" d="m82.38,17.36h19.33v45.72c0,3.17.25,5.98.77,8.44.51,2.45,1.4,4.5,2.69,6.14,1.28,1.64,3.02,2.86,5.22,3.68,2.2.82,5.04,1.23,8.51,1.23,5.42,0,10.23-1.38,14.42-4.14,1.53-1.02,2.74-2.12,3.61-3.3.87-1.17,1.53-2.43,1.99-3.76.46-1.33.79-2.63,1-3.91.2-1.28.31-2.53.31-3.76V17.52h19.33v83.31h-16.26l-1.38-6.14c-2.66,1.74-6.04,3.3-10.13,4.68-4.09,1.38-8.9,2.07-14.42,2.07-23.32,0-34.98-11.81-34.98-35.44V17.36Z"/>
      <path class="cls-1" d="m252.98,100.82h-19.33v-45.72c0-3.17-.25-5.98-.77-8.44-.51-2.45-1.4-4.5-2.69-6.14-1.28-1.64-3.02-2.86-5.22-3.68-2.2-.82-5.04-1.23-8.51-1.23-5.42,0-10.23,1.38-14.42,4.14-1.53,1.02-2.74,2.12-3.61,3.3-.87,1.17-1.53,2.43-1.99,3.76-.46,1.33-.79,2.63-1,3.91-.2,1.28-.31,2.53-.31,3.76v46.18h-19.33V17.36h16.26l1.38,6.14c2.66-1.74,6.04-3.3,10.13-4.68,4.09-1.38,8.9-2.07,14.42-2.07,23.32,0,34.98,11.81,34.98,35.44v48.63Z"/>
      <path class="cls-1" d="m269.25,17.36h16.41l1.38,5.83c2.05-2.04,4.6-3.63,7.67-4.76,3.07-1.12,6.85-1.69,11.35-1.69,2.86,0,5.22.26,7.06.77,1.12.21,2.1.46,2.92.77v19.02c-.72-.2-1.48-.36-2.3-.46-1.53-.31-3.48-.46-5.83-.46-6.65,0-11.48,1.61-14.5,4.83-3.02,3.22-4.63,8.16-4.83,14.81v44.8h-19.33V17.36Z"/>
      <path class="cls-1" d="m319.41,59.09c0-6.54.97-12.43,2.92-17.64,1.94-5.22,4.76-9.67,8.44-13.35,3.68-3.68,8.13-6.49,13.35-8.44,5.22-1.94,11.1-2.92,17.64-2.92s12.43.97,17.64,2.92c5.22,1.94,9.66,4.76,13.35,8.44,3.68,3.68,6.49,8.13,8.44,13.35,1.94,5.22,2.92,11.1,2.92,17.64s-.97,12.43-2.92,17.64c-1.94,5.22-4.76,9.67-8.44,13.35-3.68,3.68-8.13,6.5-13.35,8.44-5.22,1.94-11.1,2.92-17.64,2.92s-12.43-.97-17.64-2.92c-5.22-1.94-9.67-4.76-13.35-8.44-3.68-3.68-6.5-8.13-8.44-13.35-1.94-5.22-2.92-11.1-2.92-17.64Zm42.34,23.93c15.34,0,23.01-7.98,23.01-23.93s-7.67-23.93-23.01-23.93-23.01,7.98-23.01,23.93,7.67,23.93,23.01,23.93Z"/>
      <path class="cls-1" d="m410.69,59.09c0-6.54.97-12.43,2.92-17.64,1.94-5.22,4.76-9.67,8.44-13.35s8.13-6.49,13.35-8.44c5.22-1.94,11.1-2.92,17.64-2.92s12.43.97,17.64,2.92c5.22,1.94,9.66,4.76,13.35,8.44,3.68,3.68,6.49,8.13,8.44,13.35,1.94,5.22,2.92,11.1,2.92,17.64s-.97,12.43-2.92,17.64c-1.94,5.22-4.76,9.67-8.44,13.35-3.68,3.68-8.13,6.5-13.35,8.44-5.22,1.94-11.1,2.92-17.64,2.92s-12.43-.97-17.64-2.92c-5.22-1.94-9.67-4.76-13.35-8.44-3.68-3.68-6.5-8.13-8.44-13.35-1.94-5.22-2.92-11.1-2.92-17.64Zm42.34,23.93c15.34,0,23.01-7.98,23.01-23.93s-7.67-23.93-23.01-23.93-23.01,7.98-23.01,23.93,7.67,23.93,23.01,23.93Z"/>
      <path class="cls-1" d="m674.88,17.36l24.24,47.71,24.24-47.71h22.4l-60.29,114.6h-21.32l24.24-46.33-35.9-68.27h22.4Z"/>
      <polygon class="cls-2" points="627.28 12.91 587.16 2.59 583.68 1.7 577.07 0 570.46 1.7 566.98 2.59 526.86 12.91 506.73 18.09 506.73 100.82 526.86 100.82 526.86 31.98 527.17 31.9 564.4 22.33 566.98 21.67 566.98 100.82 577.07 100.82 587.16 100.82 587.16 21.67 589.74 22.33 626.97 31.9 627.28 31.98 627.28 100.82 647.42 100.82 647.42 18.09 627.28 12.91"/>
    </g>
  </g>
</svg>