<svg width="70" height="70" viewBox="0 0 70 70" fill="none" xmlns="http://www.w3.org/2000/svg">
<g id="interface-weather-lightning-1--cloud-bolt-storm-weather-thunder-meteorology-lightning">
<g id="Group">
<path id="Vector" d="M42.5 35L30 52.5H45L35 67.5" stroke="#000001" stroke-width="2" stroke-linecap="round" stroke-linejoin="round"/>
<path id="Vector_2" d="M54.9996 40C56.7761 40.0052 58.5334 39.6317 60.1542 38.9043C61.775 38.1769 63.2222 37.1123 64.3992 35.7816C65.5762 34.4509 66.4561 32.8846 66.9801 31.1871C67.5041 29.4895 67.6603 27.6998 67.4381 25.9372C67.216 24.1746 66.6207 22.4795 65.692 20.9651C64.7632 19.4507 63.5222 18.1516 62.0519 17.1545C60.5815 16.1574 58.9155 15.4852 57.1649 15.1826C55.4143 14.8801 53.6193 14.9542 51.8996 15.4C50.9001 11.6821 48.7025 8.39751 45.6472 6.05509C42.5919 3.71266 38.8495 2.44312 34.9996 2.44312C31.1497 2.44312 27.4072 3.71266 24.3519 6.05509C21.2966 8.39751 19.099 11.6821 18.0996 15.4C16.3798 14.9542 14.5848 14.8801 12.8342 15.1826C11.0836 15.4852 9.4176 16.1574 7.94724 17.1545C6.47687 18.1516 5.23594 19.4507 4.30716 20.9651C3.37838 22.4795 2.78309 24.1746 2.56098 25.9372C2.33886 27.6998 2.49501 29.4895 3.01903 31.1871C3.54305 32.8846 4.42289 34.4509 5.59991 35.7816C6.77694 37.1123 8.22409 38.1769 9.84492 38.9043C11.4657 39.6317 13.223 40.0052 14.9996 40H22.4996" stroke="#000001" stroke-width="2" stroke-linecap="round" stroke-linejoin="round"/>
</g>
</g>
</svg>
