<svg width="70" height="70" viewBox="0 0 70 70" fill="none" xmlns="http://www.w3.org/2000/svg">
<g id="computer-connection-wifi--wireless-wifi-internet-server-network">
<g id="Group">
<path id="Vector" d="M35.0002 61.25C38.6177 61.25 41.5502 58.3175 41.5502 54.7C41.5502 51.0826 38.6177 48.15 35.0002 48.15C31.3827 48.15 28.4502 51.0826 28.4502 54.7C28.4502 58.3175 31.3827 61.25 35.0002 61.25Z" stroke="#000001" stroke-width="2" stroke-linecap="round" stroke-linejoin="round"/>
<path id="Vector_2" d="M22.6504 39.9999C24.2763 38.3308 26.22 37.0042 28.3668 36.0983C30.5137 35.1925 32.8203 34.7258 35.1504 34.7258C37.4805 34.7258 39.7871 35.1925 41.9339 36.0983C44.0808 37.0042 46.0245 38.3308 47.6504 39.9999" stroke="#000001" stroke-width="2" stroke-linecap="round" stroke-linejoin="round"/>
<path id="Vector_3" d="M11.7998 31.55C14.8434 28.4886 18.4621 26.0592 22.4479 24.4015C26.4338 22.7437 30.708 21.8903 35.0248 21.8903C39.3416 21.8903 43.6159 22.7437 47.6017 24.4015C51.5875 26.0592 55.2062 28.4886 58.2498 31.55" stroke="#000001" stroke-width="2" stroke-linecap="round" stroke-linejoin="round"/>
<path id="Vector_4" d="M2.5 22.25C6.76716 17.9806 11.8337 14.5938 17.4102 12.2831C22.9866 9.9724 28.9638 8.78308 35 8.78308C41.0362 8.78308 47.0134 9.9724 52.5898 12.2831C58.1663 14.5938 63.2328 17.9806 67.5 22.25" stroke="#000001" stroke-width="2" stroke-linecap="round" stroke-linejoin="round"/>
</g>
</g>
</svg>
